<svg xmlns="http://www.w3.org/2000/svg" viewBox="0 0 533.5 544.3">
  <path fill="#4285F4" d="M533.5 278.4c0-18.4-1.5-36.1-4.3-53.4H272v101h146.9c-6.3 34-25 62.8-53.2 82v68h86.1c50.4-46.4 81.7-114.8 81.7-197.6z"/>
  <path fill="#34A853" d="M272 544.3c72.6 0 133.6-24.1 178.1-65.3l-86.1-68c-24 16.1-54.7 25.6-92 25.6-70.7 0-130.6-47.7-152-111.7H30.5v70.3C74.5 475.2 167.2 544.3 272 544.3z"/>
  <path fill="#FBBC05" d="M120 324.9c-10.3-30.9-10.3-64.1 0-95V159.6H30.5c-39.4 78.6-39.4 170.6 0 249.2L120 324.9z"/>
  <path fill="#EA4335" d="M272 107.7c39.5-.6 77.6 14.6 106.6 42.6l79.6-79.6C412.2 24.1 344.6-1.3 272 0 167.2 0 74.5 69.1 30.5 159.6L120 229.9C141.4 155.9 201.3 108.2 272 107.7z"/>
</svg>